<svg width="18" height="17" viewBox="0 0 18 17" fill="none" xmlns="http://www.w3.org/2000/svg">
<path d="M16.5001 5.375C16.9168 5.41667 17.1876 5.63542 17.3126 6.03125C17.4376 6.42708 17.3543 6.77083 17.0626 7.0625L13.7501 10.2812L14.5313 14.8438C14.5938 15.2396 14.4584 15.5521 14.1251 15.7812C13.7918 16.0312 13.448 16.0625 13.0938 15.875L9.0001 13.75L4.90635 15.875C4.55218 16.0833 4.20843 16.0625 3.8751 15.8125C3.54176 15.5625 3.40635 15.2396 3.46885 14.8438L4.2501 10.2812L0.937598 7.0625C0.645931 6.77083 0.562598 6.42708 0.687598 6.03125C0.812598 5.63542 1.08343 5.41667 1.5001 5.375L6.0626 4.6875L8.09385 0.5625C8.28135 0.1875 8.58343 0 9.0001 0C9.41676 0 9.71885 0.1875 9.90635 0.5625L11.9376 4.6875L16.5001 5.375ZM12.1563 9.75L15.2813 6.6875L10.9376 6.0625L9.0001 2.125L7.0626 6.0625L2.71885 6.6875L5.84385 9.75L5.1251 14.0938L9.0001 12.0312L12.8751 14.0938L12.1563 9.75Z" fill="#032541"/>
</svg>
